<svg xmlns="http://www.w3.org/2000/svg" viewBox="0 0 96 96" role="img" aria-labelledby="title desc">
  <title id="title">Símbolo Dr. Cláudio Rios</title>
  <desc id="desc">Curva orgânica protegendo uma coluna estilizada em movimento.</desc>
  <path d="M68 18C57 8 39 7 25 16C10 26 6 46 14 62C23 80 46 87 64 76C70 72 75 66 78 60" fill="none" stroke="#F5F0E6" stroke-width="4.5" stroke-linecap="round"/>
  <path d="M51 18C43 28 55 34 47 44C39 54 50 61 43 75" fill="none" stroke="#D1A866" stroke-width="3.5" stroke-linecap="round"/>
  <g fill="#D1A866" stroke="#16241F" stroke-width="1.5">
    <ellipse cx="51" cy="22" rx="6.5" ry="4.5" transform="rotate(-22 51 22)"/><ellipse cx="49" cy="34" rx="6.5" ry="4.5" transform="rotate(14 49 34)"/><ellipse cx="47" cy="46" rx="6.5" ry="4.5" transform="rotate(-18 47 46)"/><ellipse cx="46" cy="58" rx="6.5" ry="4.5" transform="rotate(16 46 58)"/><ellipse cx="43" cy="70" rx="6.5" ry="4.5" transform="rotate(-19 43 70)"/>
  </g>
  <path d="M69 46h13m-6.5-6.5L82 46l-6.5 6.5" fill="none" stroke="#D1A866" stroke-width="3" stroke-linecap="round" stroke-linejoin="round"/>
</svg>
